HIERARCHY
ROOT Hips
{
    OFFSET 0.000000 0.000000 0.000000
    CHANNELS 6 Xposition Yposition Zposition Zrotation Xrotation Yrotation
    JOINT Spine
    {
        OFFSET -0.000000 8.359812 0.000000
        CHANNELS 3 Zrotation Xrotation Yrotation
        JOINT Spine1
        {
            OFFSET -0.000000 28.141317 0.000000
            CHANNELS 3 Zrotation Xrotation Yrotation
            JOINT Neck
            {
                OFFSET -0.000000 28.025745 2.547795
                CHANNELS 3 Zrotation Xrotation Yrotation
                JOINT Head
                {
                    OFFSET -0.000000 14.272848 -2.038978
                    CHANNELS 3 Zrotation Xrotation Yrotation
                    End Site
                    {
                        OFFSET -0.000000 25.487228 0.000000
                    }
                }
            }
            JOINT LeftShoulder
            {
                OFFSET 4.059574 26.120710 -0.180480
                CHANNELS 3 Zrotation Xrotation Yrotation
                JOINT LeftArm
                {
                    OFFSET 11.584161 0.000000 0.000000
                    CHANNELS 3 Zrotation Xrotation Yrotation
                    JOINT LeftForeArm
                    {
                        OFFSET 30.766815 0.000000 0.000000
                        CHANNELS 3 Zrotation Xrotation Yrotation
                        JOINT LeftHand
                        {
                            OFFSET 29.436810 0.000000 0.000000
                            CHANNELS 3 Zrotation Xrotation Yrotation
                            End Site
                            {
                                OFFSET 15.292337 0.000000 0.000000
                            }
                        }
                    }
                }
            }
            JOINT RightShoulder
            {
                OFFSET -4.095355 26.120710 -0.180480
                CHANNELS 3 Zrotation Xrotation Yrotation
                JOINT RightArm
                {
                    OFFSET -11.584161 0.000000 0.000000
                    CHANNELS 3 Zrotation Xrotation Yrotation
                    JOINT RightForeArm
                    {
                        OFFSET -30.766815 0.000000 0.000000
                        CHANNELS 3 Zrotation Xrotation Yrotation
                        JOINT RightHand
                        {
                            OFFSET -29.436810 0.000000 0.000000
                            CHANNELS 3 Zrotation Xrotation Yrotation
                            End Site
                            {
                                OFFSET -15.292337 0.000000 0.000000
                            }
                        }
                    }
                }
            }
        }
    }
    JOINT LeftUpLeg
    {
        OFFSET 10.194892 0.000000 0.000000
        CHANNELS 3 Zrotation Xrotation Yrotation
        JOINT LeftLeg
        {
            OFFSET -0.000000 -32.520012 0.000000
            CHANNELS 3 Zrotation Xrotation Yrotation
            JOINT LeftFoot
            {
                OFFSET -0.000000 -49.106510 0.000000
                CHANNELS 3 Zrotation Xrotation Yrotation
                JOINT LeftToeBase
                {
                    OFFSET -0.000000 -6.626679 15.292337
                    CHANNELS 3 Zrotation Xrotation Yrotation
                    End Site
                    {
                        OFFSET -0.000000 0.000000 4.077957
                    }
                }
            }
        }
    }
    JOINT RightUpLeg
    {
        OFFSET -10.194892 0.000000 0.000000
        CHANNELS 3 Zrotation Xrotation Yrotation
        JOINT RightLeg
        {
            OFFSET -0.000000 -32.520012 0.000000
            CHANNELS 3 Zrotation Xrotation Yrotation
            JOINT RightFoot
            {
                OFFSET -0.000000 -49.106510 0.000000
                CHANNELS 3 Zrotation Xrotation Yrotation
                JOINT RightToeBase
                {
                    OFFSET -0.000000 -6.626679 15.292337
                    CHANNELS 3 Zrotation Xrotation Yrotation
                    End Site
                    {
                        OFFSET -0.000000 0.000000 4.077957
                    }
                }
            }
        }
    }
}
MOTION
Frames:    4
Frame Time:    0.008333
72.860992    30.466021    38.283001    -1.735345    -4.285590    76.457138    0.025082    18.080816    1.331746    -2.627595    24.123520    1.897266    5.825960    17.032034    14.163829    -21.384741    -32.191601    5.891707    7.759136    -5.922461    -3.233850    -77.246033    48.512650    25.240858    37.862156    3.908983    -80.991844    86.288155    -0.042021    -38.153149    -14.166331    -2.594321    6.093431    49.022831    77.500076    9.964603    -49.050907    -1.502406    69.988174    -85.562149    14.002340    23.446642    105.999687    -68.432541    83.830544    -173.811691    34.091286    130.734314    54.968491    -47.648193    67.709633    0.000000    0.000000    0.000000    -135.608002    -81.714020    -140.594574    -173.338943    40.351402    136.823502    47.466831    -50.502750    62.011726    0.000000    0.000000    0.000000    
72.808426    30.626595    38.267731    -1.960902    -4.272798    76.478386    0.153939    17.925409    1.296131    -2.732728    23.977861    1.900793    5.851643    16.696077    14.166614    -21.049248    -31.900591    6.070722    8.074117    -5.811328    -3.149701    -77.477882    48.544315    25.128075    37.768288    3.983366    -80.853241    86.596542    -0.281267    -38.069939    -14.508783    -2.811603    6.038796    49.798618    77.710831    9.605973    -48.738239    -1.373162    69.982124    -85.401596    13.942384    23.403360    106.324387    -68.261482    84.048180    -173.662247    34.261009    129.317139    55.102985    -46.934177    68.174622    0.000000    0.000000    0.000000    -135.880875    -81.631058    -140.963654    -173.229187    40.605564    136.830902    47.302311    -50.412254    61.896111    0.000000    0.000000    0.000000    
72.799210    30.799515    38.257442    -2.000027    -4.305498    76.517181    0.146284    17.979048    1.297868    -2.564435    23.788538    1.861227    5.846082    16.653782    14.110129    -21.154682    -32.036930    5.939847    8.086232    -5.967673    -3.169757    -77.842285    48.480087    25.378393    37.604652    4.207903    -80.642189    86.530983    -0.307208    -38.064560    -14.557199    -2.711534    6.021742    49.000553    77.657585    10.399240    -48.670818    -1.168824    70.061714    -85.167870    14.622434    22.992413    106.165215    -68.139336    83.813751    -173.565750    34.419846    127.863930    55.422878    -45.957359    68.788246    0.000000    0.000000    0.000000    -134.814468    -81.687874    -139.841888    -173.286438    40.850300    137.237289    46.953281    -50.466553    61.558784    0.000000    0.000000    0.000000    
72.818779    30.943848    38.229340    -1.981465    -4.264877    76.617683    0.156337    17.988031    1.283048    -2.519532    23.691685    1.836311    5.961928    16.296213    14.124801    -21.060780    -31.684155    6.039107    8.269160    -5.916488    -3.137145    -78.047379    48.608650    25.266495    37.453781    4.321882    -80.414642    86.376770    -0.280498    -37.978836    -14.663235    -2.866511    5.922385    49.266392    77.821701    10.264834    -48.534893    -1.120289    70.051201    -85.230774    14.523494    22.983313    105.892059    -68.101944    83.484367    -173.443756    34.484905    126.130234    55.824203    -44.768276    69.541573    0.000000    0.000000    0.000000    -133.517944    -81.643372    -138.383377    -173.352234    41.004944    137.564560    46.678059    -50.470409    61.316490    0.000000    0.000000    0.000000    
